<?xml version="1.0" encoding="UTF-8"?>
<svg width="69px" height="69px" viewBox="0 0 69 69" version="1.1" xmlns="http://www.w3.org/2000/svg" xmlns:xlink="http://www.w3.org/1999/xlink">
    <title>graph-icon</title>
    <g id="Page-1" stroke="none" stroke-width="1" fill="none" fill-rule="evenodd">
        <g id="graph-icon" fill-rule="nonzero">
            <g id="Group" fill="#FFFFFF">
                <path d="M19,0 L50,0 C60.4934102,0 69,8.50658975 69,19 L69,50 C69,60.4934102 60.4934102,69 50,69 L19,69 C8.50658975,69 0,60.4934102 0,50 L0,19 C0,8.50658975 8.50658975,0 19,0 Z" id="Path"></path>
            </g>
            <g id="Group" transform="translate(21.617000, 23.718000)" fill="#389B6C">
                <g transform="translate(0.063000, 0.016000)">
                    <path d="M25.285,3.746 L25.285,0.468 C25.285,0.343878683 25.235693,0.224841052 25.147926,0.137074026 C25.0601589,0.0493070013 24.9411213,0 24.817,0 L0.468,0 C0.209530737,0 0,0.209530737 0,0.468 L0,3.746 L25.285,3.746 Z" id="Path"></path>
                    <path d="M0,4.682 L0,21.07 C0,21.3284693 0.209530737,21.538 0.468,21.538 L24.817,21.538 C24.9411213,21.538 25.0601589,21.488693 25.147926,21.400926 C25.235693,21.3131589 25.285,21.1941213 25.285,21.07 L25.285,4.682 L0,4.682 Z M22.382,12.923 C22.3077546,13.0225258 22.1969303,13.0883863 22.0740212,13.1060252 C21.9511121,13.1236641 21.8262386,13.0916289 21.727,13.017 L18.377,10.504 L14.905,15.711 C14.8163224,15.8471201 14.6622967,15.9262247 14.5,15.919 C14.3373195,15.9133738 14.1892481,15.8236221 14.109,15.682 L10.769,9.838 L7.43,15.682 C7.3633607,15.7984742 7.24993004,15.8807395 7.11851757,15.9079019 C6.9871051,15.9350643 6.85035516,15.9045103 6.743,15.824 L3,13.017 C2.86620403,12.9166084 2.79612975,12.7524634 2.81617347,12.5863969 C2.83621718,12.4203303 2.94333378,12.2775717 3.09717347,12.2118968 C3.25101317,12.146222 3.42820404,12.1676084 3.562,12.268 L6.884,14.759 L10.367,8.659 C10.4571268,8.52239418 10.6098419,8.44019163 10.7735,8.44019163 C10.9371581,8.44019163 11.0898732,8.52239418 11.18,8.659 L14.55,14.559 L17.876,9.571 C17.9473183,9.46370419 18.0597145,9.39055466 18.186699,9.36879131 C18.3136834,9.34702795 18.4440233,9.37857593 18.547,9.456 L22.293,12.265 C22.3926293,12.340043 22.4580989,12.4518227 22.4748173,12.5754267 C22.4915358,12.6990307 22.4581138,12.8241863 22.382,12.923 L22.382,12.923 Z" id="Shape"></path>
                </g>
            </g>
        </g>
    </g>
</svg>