<?xml version="1.0" encoding="UTF-8"?>
<svg width="69px" height="69px" viewBox="0 0 69 69" version="1.1" xmlns="http://www.w3.org/2000/svg" xmlns:xlink="http://www.w3.org/1999/xlink">
    <title>pin-icon</title>
    <g id="Page-1" stroke="none" stroke-width="1" fill="none" fill-rule="evenodd">
        <g id="pin-icon" fill-rule="nonzero">
            <g id="Group" fill="#FFFFFF">
                <path d="M19,0 L50,0 C60.4934102,0 69,8.50658975 69,19 L69,50 C69,60.4934102 60.4934102,69 50,69 L19,69 C8.50658975,69 0,60.4934102 0,50 L0,19 C0,8.50658975 8.50658975,0 19,0 Z" id="Path"></path>
            </g>
            <g id="Group" transform="translate(22.500000, 18.000000)" fill="#FFB552">
                <path d="M12.211,-3.84854797e-07 C9.10496838,-3.84854797e-07 6.12607558,1.23348352 3.92977955,3.42977955 C1.73348352,5.62607558 0.499734743,8.60496838 0.499999957,11.711 C0.502639517,14.3254221 1.26487093,16.8827536 2.694,19.072 L12.212,33.46 L21.73,19.072 C23.1639643,16.8849976 23.9266352,14.3261914 23.9240068,11.711 C23.9242654,8.60462179 22.6902421,5.6254258 20.4935134,3.42907225 C18.2967848,1.2327187 15.3173781,-0.000795838377 12.211,-3.84854797e-07 Z M12.211,16.173 C9.74725773,16.173 7.75,14.1757423 7.75,11.712 C7.75,9.24825773 9.74725773,7.251 12.211,7.251 C14.6747423,7.251 16.672,9.24825773 16.672,11.712 C16.6643142,14.1725517 14.6715517,16.1653142 12.211,16.173 Z" id="Shape"></path>
            </g>
        </g>
    </g>
</svg>