<?xml version="1.0" encoding="UTF-8"?>
<svg width="69px" height="69px" viewBox="0 0 69 69" version="1.1" xmlns="http://www.w3.org/2000/svg" xmlns:xlink="http://www.w3.org/1999/xlink">
    <title>tree-icon</title>
    <g id="Page-1" stroke="none" stroke-width="1" fill="none" fill-rule="evenodd">
        <g id="tree-icon" fill-rule="nonzero">
            <g id="Group" fill="#FFFFFF">
                <path d="M18.7285714,0 L49.2857143,0 C59.6292187,0 68.0142857,8.38506704 68.0142857,18.7285714 L68.0142857,49.2857143 C68.0142857,59.6292187 59.6292187,68.0142857 49.2857143,68.0142857 L18.7285714,68.0142857 C8.38506704,68.0142857 0,59.6292187 0,49.2857143 L0,18.7285714 C0,8.38506704 8.38506704,0 18.7285714,0 Z" id="Path"></path>
            </g>
            <g id="Path" transform="translate(21.370286, 20.752243)" fill="#429A2F">
                <path d="M7.56338571,26.6724429 C7.56551668,26.9012258 7.4755065,27.1212445 7.31363285,27.2829327 C7.15175919,27.444621 6.93163746,27.5343789 6.70285714,27.5320773 C6.23091932,27.526117 5.85007075,27.1443929 5.84528571,26.6724429 L5.84528571,10.3243714 L7.56338571,10.3243714 L7.56338571,26.6724429 Z"></path>
                <path d="M3.72107143,3.12372857 C2.31433971,4.06505596 1.46527064,5.64210946 1.45392857,7.3347 C1.45393208,7.57815842 1.47172229,7.82129127 1.50715714,8.06215714 C0.534104061,9.21048103 -0.000577564101,10.6664495 -0.00197142857,12.1716 C0.0852221785,15.8864867 3.16530659,18.8284923 6.88028571,18.7453286 C10.5952648,18.8284923 13.6753493,15.8864867 13.7625429,12.1716 C13.7608735,10.6663253 13.2258374,9.21034261 12.2524286,8.06215714 C12.2878704,7.82129204 12.3056607,7.57815866 12.3056571,7.3347 C12.2943151,5.64210946 11.445246,4.06505596 10.0385143,3.12372857 C10.0385143,3.08955715 10.0385143,3.0567 10.0385143,3.02515714 C10.0008068,1.31886834 8.58861035,-0.0346703249 6.88225714,3.43692089e-16 C5.17473998,-0.0385519586 3.75892877,1.31372644 3.7191,3.02121429 C3.7191,3.05538571 3.71975714,3.08955715 3.72107143,3.12372857 Z"></path>
                <path d="M19.6098,26.6724429 C19.611931,26.9012258 19.5219207,27.1212445 19.3600471,27.2829327 C19.1981735,27.444621 18.9780518,27.5343789 18.7492714,27.5320773 C18.2769486,27.5266484 17.8955095,27.1447715 17.8907143,26.6724429 L17.8907143,10.3243714 L19.6117714,10.3243714 L19.6098,26.6724429 Z"></path>
                <path d="M16.3815857,10.9473429 C15.3288769,11.6532867 14.6934174,12.8341635 14.6841857,14.1016286 C14.6840377,14.2840462 14.6972156,14.4662311 14.7236143,14.6467286 C13.9919458,15.5094109 13.5902407,16.6037953 13.5900429,17.7349714 C13.6567756,20.5204753 15.9666208,22.7257887 18.7522286,22.6635429 C21.5378363,22.7257887 23.8476816,20.5204753 23.9144143,17.7349714 C23.9130502,16.6054902 23.5114165,15.5130466 22.7808429,14.6516571 C22.8072976,14.4711657 22.8204758,14.2889769 22.8202714,14.1065571 C22.8110397,12.8390921 22.1755803,11.6582153 21.1228714,10.9522714 C21.1228714,10.9266429 21.1228714,10.9010143 21.1228714,10.8753857 C21.0597258,9.61102846 20.0161903,8.61830928 18.7502571,8.61830928 C17.484324,8.61830928 16.4407885,9.61102846 16.3776429,10.8753857 C16.3796143,10.8960857 16.3796143,10.9217143 16.3815857,10.9473429 Z"></path>
            </g>
        </g>
    </g>
</svg>