<?xml version="1.0" encoding="UTF-8"?>
<svg width="99px" height="81px" viewBox="0 0 99 81" version="1.1" xmlns="http://www.w3.org/2000/svg" xmlns:xlink="http://www.w3.org/1999/xlink">
    <title>quotation-marks</title>
    <g id="Page-1" stroke="none" stroke-width="1" fill="none" fill-rule="evenodd">
        <g id="quotation-marks" transform="translate(49.500000, 40.500000) scale(-1, 1) translate(-49.500000, -40.500000) " fill="#429A2F" fill-rule="nonzero">
            <path d="M96.76,32.603 C91.511,13.831 78.562,0.204 65.975,0.204 C64.964,0.204 63.954,0.292 62.97,0.466 C62.412,0.564 61.924,0.892 61.622,1.368 C61.321,1.847 61.236,2.429 61.389,2.973 L63.98,12.241 C64.23,13.136 65.093,13.741 65.99,13.7 L66.196,13.696 C70.864,13.696 79.395,20.692 83.744,36.241 C83.916,36.858 84.079,37.489 84.236,38.147 C79.354,35.731 73.53,35.172 68.256,36.641 C56.358,39.97 49.388,52.356 52.714,64.252 C55.41,73.891 64.277,80.625 74.277,80.625 C76.314,80.625 78.348,80.344 80.323,79.791 C88.169,77.598 94.068,71.084 96.934,61.453 C99.521,52.764 99.456,42.249 96.76,32.603 Z" id="Path"></path>
            <path d="M14.088,0.206 C13.079,0.206 12.068,0.292 11.085,0.466 C10.528,0.562 10.039,0.892 9.738,1.368 C9.437,1.847 9.352,2.429 9.504,2.973 L12.096,12.241 C12.346,13.136 13.193,13.741 14.106,13.7 L14.31,13.696 C18.978,13.696 27.51,20.692 31.859,36.241 C32.032,36.862 32.195,37.493 32.351,38.147 C27.467,35.731 21.645,35.172 16.371,36.641 C4.475,39.97 -2.497,52.356 0.831,64.252 C3.527,73.891 12.394,80.625 22.394,80.625 C24.431,80.625 26.465,80.344 28.441,79.791 C36.286,77.598 42.185,71.084 45.052,61.453 C47.638,52.764 47.574,42.248 44.877,32.601 C39.625,13.831 26.678,0.206 14.088,0.206 Z" id="Path"></path>
        </g>
    </g>
</svg>